<svg xmlns="http://www.w3.org/2000/svg" width="152.513" height="209.793" viewBox="0 0 152.513 209.793"><defs><style>.a{fill:#efe3e3;stroke:rgba(0,0,0,0);stroke-miterlimit:10;}</style></defs><path class="a" d="M2311.841,320.474a41.908,41.908,0,0,1-3.392-8.083h-.332l-.357-2.417a87.929,87.929,0,0,1-2.49-16.834l-2.526-17.076h-28.205l-7.617,36.327H2248.8L2255.4,277.3a22.248,22.248,0,0,1-17.147-9.6q-7.04-9.671-7.04-29.012V173.306H2214V154.782h17.208V127.814L2248.025,124v30.782h49.646l-.62,2.266,10.26,54.292q.2-.888.418-1.739,2.718-10.613,9.34-16.315t18.193-5.7q15.613,0,22.514,10t6.9,31.4v5.263H2349.9v-4.386a95.985,95.985,0,0,0-.977-15.7q-.975-5.526-4.112-8.332t-9.27-2.807q-6.552,0-9.758,3.772a19.489,19.489,0,0,0-4.113,10.088,124.07,124.07,0,0,0-.906,16.84v26.841h44.749v70.349h-9.9l-1.533-16.316q-5.3,18.07-20.074,18.07Q2318.672,332.667,2311.841,320.474Zm12.059-10.7q3.137,7.1,12.059,7.105,8.781,0,12.058-7.719t3.277-24.736V274.6h-30.531v11.754c0,.074,0,.149,0,.223a103.312,103.312,0,0,1,.537,11.707A39.317,39.317,0,0,0,2323.9,309.773Zm-75.875-74.9q0,21.848,11.052,22.835l15.857-84.4h-26.908Zm28.126,22.461h23.076L2287.6,186.816Z" transform="translate(-2213.5 -123.374)"/></svg>